#!OML:ASF I:\Actors\actors\Patient Classification 1\Patient 1\Session 1\Subject1.ASF
:FULLY-SPECIFIED
:DEGREES
1018
root -0.553551 17.5863 7.11472 8.15852 -2.07358 -8.55768
lowerback 6.16322 6.39622 3.68765
upperback -8.64476 9.18406 0.18383
thorax -12.2665 4.08844 -3.31873
lowerneck -13.0022 -11.9603 -8.20535
upperneck 17.8265 -17.5682 12.4383
head 9.64674 -7.6312 3.21433
rclavicle 4.71617e-014 2.54444e-014
rhumerus -0.081726 21.1684 -96.4841
rradius 43.5369
rwrist 68.561
rhand -39.9646 -69.4716
rfingers 7.12502
rthumb -12.9337 -260.949
lclavicle 4.71617e-014 2.54444e-014
lhumerus -32.0928 28.309 45.9491
lradius 113.627
lwrist 35.6047
lhand -35.114 -4.34175
lfingers 7.12502
lthumb -8.2548 25.477
rfemur -1.30458 24.723 26.2775
rtibia -1.60254
rfoot -11.5667 -21.4172
rtoes 6.66717
lfemur 0.873219 -34.3225 -10.0504
ltibia -0.843882
lfoot -11.9608 42.3227
ltoes -0.00629508
1019
root -0.53197 17.588 7.11998 8.06824 -1.42885 -8.58716
lowerback 6.14195 6.31565 3.61889
upperback -8.55796 9.06876 0.250225
thorax -12.1823 4.0481 -3.185
lowerneck -12.9078 -12.1024 -8.37304
upperneck 17.5168 -17.7365 12.6192
head 9.57605 -7.71857 3.27765
rclavicle -9.28821e-014 -1.74931e-014
rhumerus -1.88725 18.7415 -94.4543
rradius 43.5104
rwrist 67.72
rhand -40.0266 -68.4534
rfingers 7.12502
rthumb -12.9935 -261.971
lclavicle -9.28821e-014 -1.74931e-014
lhumerus -32.6588 28.3485 45.389
lradius 113.547
lwrist 35.6095
lhand -35.222 -4.19887
lfingers 7.12502
lthumb -8.35904 25.6157
rfemur -1.01347 25.0956 26.4026
rtibia -1.72395
rfoot -11.8956 -22.4658
rtoes 6.76977
lfemur 0.617429 -34.0794 -9.8941
ltibia -0.771144
lfoot -11.5055 41.4921
ltoes -0.501001
1020
root -0.509479 17.5893 7.12611 8.00686 -0.712012 -8.60676
lowerback 6.08832 6.21285 3.54032
upperback -8.49307 8.92205 0.318272
thorax -12.107 3.99317 -3.03749
lowerneck -12.7854 -12.2406 -8.51758
upperneck 17.1916 -17.8963 12.7703
head 9.48934 -7.80561 3.33062
rclavicle -8.05078e-014 -2.94201e-014
rhumerus -3.3459 15.9651 -92.0593
rradius 43.5943
rwrist 66.6214
rhand -39.0837 -68.8835
rfingers 7.12502
rthumb -12.0843 -261.485
lclavicle -8.05078e-014 -2.94201e-014
lhumerus -33.2685 28.3487 44.7135
lradius 113.42
lwrist 35.5882
lhand -35.1438 -4.12797
lfingers 7.12502
lthumb -8.28354 25.6896
rfemur -0.74723 25.5233 26.5156
rtibia -1.84448
rfoot -12.2683 -23.6315
rtoes 6.97468
lfemur 0.327633 -33.9333 -9.7359
ltibia -0.722455
lfoot -10.9249 40.7221
ltoes -1.30082
1021
root -0.487337 17.5913 7.13126 7.96175 0.121235 -8.6508
lowerback 6.11857 6.00643 3.44796
upperback -8.48944 8.64708 0.436972
thorax -12.1716 3.87343 -2.82631
lowerneck -12.5926 -12.318 -8.62251
upperneck 16.8479 -17.9729 12.8932
head 9.36747 -7.85905 3.38671
rclavicle 7.79733e-014 7.15625e-015
rhumerus -4.5001 12.9403 -89.5549
rradius 43.2807
rwrist 66.5475
rhand -40.1034 -71.5093
rfingers 7.12502
rthumb -13.0674 -258.92
lclavicle 7.79733e-014 7.15625e-015
lhumerus -34.1616 28.3043 43.6853
lradius 113.406
lwrist 35.7037
lhand -35.1142 -4.1631
lfingers 7.12502
lthumb -8.25496 25.6556
rfemur -0.506868 25.9353 26.6609
rtibia -1.92981
rfoot -12.7883 -24.8236
rtoes 7.67275
lfemur -0.0355985 -33.733 -9.48314
ltibia -0.703753
lfoot -10.2116 39.8184
ltoes -2.30615
1022
root -0.465422 17.5939 7.13508 7.88268 1.04218 -8.73082
lowerback 6.23512 5.73767 3.43646
upperback -8.49946 8.30311 0.56093
thorax -12.2964 3.71054 -2.65278
lowerneck -12.3849 -12.3946 -8.75916
upperneck 16.5419 -18.0578 13.0526
head 9.26469 -7.91418 3.45877
rclavicle 5.86415e-015 -1.11319e-014
rhumerus -5.10213 9.74801 -86.9802
rradius 43.1022
rwrist 65.2977
rhand -38.2765 -71.1294
rfingers 7.12502
rthumb -11.306 -259.195
lclavicle 5.86415e-015 -1.11319e-014
lhumerus -35.1452 28.2041 42.4666
lradius 113.524
lwrist 35.9898
lhand -35.3045 -4.18088
lfingers 7.12502
lthumb -8.43864 25.6305
rfemur -0.242957 26.3003 26.8626
rtibia -1.99477
rfoot -13.3828 -25.9943
rtoes 8.36313
lfemur -0.430911 -33.5475 -9.16955
ltibia -0.653444
lfoot -9.49242 38.788
ltoes -3.38328
1023
root -0.443698 17.5965 7.13593 7.76319 2.03129 -8.78101
lowerback 6.38274 5.44114 3.49911
upperback -8.47928 7.92355 0.625616
thorax -12.3862 3.52203 -2.576
lowerneck -12.2923 -12.5105 -8.8454
upperneck 16.4122 -18.2079 13.1248
head 9.23738 -7.99198 3.47589
rclavicle 5.08392e-014 1.27222e-014
rhumerus -5.18124 6.63156 -84.2498
rradius 42.8601
rwrist 65.4817
rhand -40.8299 -72.1969
rfingers 7.12502
rthumb -13.7677 -258.279
lclavicle 5.08392e-014 1.27222e-014
lhumerus -35.9631 28.044 41.2615
lradius 113.653
lwrist 36.2755
lhand -35.5795 -4.12465
lfingers 7.12502
lthumb -8.70403 25.6759
rfemur 0.0329077 26.6766 27.0506
rtibia -2.01617
rfoot -14.0876 -27.2238
rtoes 9.09015
lfemur -0.894911 -33.387 -8.8667
ltibia -0.487221
lfoot -8.72208 37.6213
ltoes -4.7474
1024
root -0.421503 17.5974 7.13996 7.628 2.93603 -8.72384
lowerback 6.48856 5.14874 3.47808
upperback -8.45333 7.53201 0.651185
thorax -12.4487 3.33479 -2.48717
lowerneck -12.1933 -12.5996 -8.80967
upperneck 16.3748 -18.3147 13.0072
head 9.20259 -8.05697 3.42015
rclavicle 3.69243e-014 3.97569e-015
rhumerus -4.9365 4.18887 -81.5237
rradius 42.9085
rwrist 65.4395
rhand -41.6746 -71.6959
rfingers 7.12502
rthumb -14.5816 -258.837
lclavicle 3.69243e-014 3.97569e-015
lhumerus -36.7111 27.8925 40.0782
lradius 113.756
lwrist 36.384
lhand -35.8084 -3.93752
lfingers 7.12502
lthumb -8.92491 25.8537
rfemur 0.353596 27.0153 27.1293
rtibia -2.05836
rfoot -14.8031 -28.3572
rtoes 9.76592
lfemur -1.21328 -33.404 -8.80126
ltibia -0.346732
lfoot -8.24191 36.668
ltoes -5.58106
1025
root -0.398676 17.5965 7.14837 7.52019 3.6905 -8.69744
lowerback 6.4917 4.89132 3.47543
upperback -8.41907 7.18644 0.69849
thorax -12.4361 3.17293 -2.3792
lowerneck -12.0905 -12.6673 -8.74362
upperneck 16.3353 -18.3819 12.8245
head 9.15124 -8.1082 3.34593
rclavicle 4.37823e-014 3.02153e-014
rhumerus -4.36237 2.2505 -78.9249
rradius 43.3901
rwrist 64.9484
rhand -40.2915 -72.5519
rfingers 7.12502
rthumb -13.2488 -257.889
lclavicle 4.37823e-014 3.02153e-014
lhumerus -37.3504 27.8701 39.0633
lradius 113.855
lwrist 36.4389
lhand -36.0079 -3.85033
lfingers 7.12502
lthumb -9.11745 25.9326
rfemur 0.630346 27.1279 27.205
rtibia -2.10622
rfoot -15.2625 -29.1717
rtoes 10.1212
lfemur -1.43441 -33.29 -8.76406
ltibia -0.276885
lfoot -7.93543 35.7837
ltoes -6.06716
1026
root -0.377406 17.597 7.1515 7.40971 4.22609 -8.75131
lowerback 6.59397 4.71603 3.5782
upperback -8.39159 6.97069 0.742281
thorax -12.4728 3.06082 -2.36277
lowerneck -12.0381 -12.7503 -8.80825
upperneck 16.3463 -18.4799 12.7714
head 9.15724 -8.16466 3.32435
rclavicle -6.6245e-014 -1.98785e-014
rhumerus -3.43927 0.480487 -76.4785
rradius 44.2577
rwrist 65.0164
rhand -37.9496 -68.1616
rfingers 7.12502
rthumb -10.9907 -262.146
lclavicle -6.6245e-014 -1.98785e-014
lhumerus -37.7304 28.153 38.4252
lradius 113.965
lwrist 36.4471
lhand -36.0699 -3.87046
lfingers 7.12502
lthumb -9.17722 25.9098
rfemur 0.788181 27.1869 27.3134
rtibia -2.05473
rfoot -15.6021 -29.7205
rtoes 10.5035
lfemur -1.64826 -33.0245 -8.64035
ltibia -0.148651
lfoot -7.63114 34.9827
ltoes -6.78244
